<svg height="70pt" viewBox="0 0 512.00131 512" width="70pt" xmlns="http://www.w3.org/2000/svg"><path d="m190.335938 196.417969-1.917969-1.707031c-1.941407-1.75-4.460938-2.710938-7.082031-2.710938-168.898438 0-181.207032 157.71875-181.3125005 159.296875-.2343755 3.625 1.3632815 7.105469 4.2890625 9.28125 1.875 1.386719 4.09375 2.089844 6.355469 2.089844 1.257812 0 2.539062-.234375 3.753906-.683594l85.335937-32c2.195313-.808594 4.050782-2.324219 5.308594-4.332031.320313-.511719 33.515625-53.417969 86.253906-114.28125 3.816407-4.414063 3.367188-11.070313-.984374-14.953125zm0 0" fill="#f44336"/><path d="m317.292969 323.5625-1.707031-1.917969c-3.882813-4.332031-10.539063-4.800781-14.957032-.960937-60.863281 52.757812-113.746094 85.929687-114.28125 86.273437-1.984375 1.234375-3.519531 3.113281-4.351562 5.289063l-32 85.332031c-1.28125 3.394531-.726563 7.210937 1.429687 10.113281 2.027344 2.730469 5.203125 4.308594 8.574219 4.308594.234375 0 .46875 0 .707031-.019531 1.578125-.109375 159.292969-12.417969 159.292969-181.3125 0-2.625-.957031-5.140625-2.707031-7.105469zm0 0" fill="#f44336"/><path d="m501.335938 0c-128.191407 0-248.109376 107.328125-326.144532 197.398438-53.890625 62.207031-86.871094 114.75-88.234375 116.949218-2.625 4.203125-2.007812 9.683594 1.511719 13.183594l96 96c2.050781 2.070312 4.78125 3.136719 7.53125 3.136719 1.941406 0 3.90625-.511719 5.65625-1.621094 2.21875-1.367187 54.761719-34.328125 116.96875-88.234375 90.027344-78.039062 197.375-197.953125 197.375-326.144531 0-5.886719-4.777344-10.667969-10.664062-10.667969zm0 0" fill="#cfd8dc"/><path d="m125.25 387.117188c-.511719-.515626-1.132812-1.003907-1.769531-1.386719-20.460938-19.90625-40.195313-26.796875-58.667969-20.460938-48.578125 16.640625-63.210938 122.6875-64.7265625 134.71875-.3828125 3.050781 1.4101565 6.058594 3.4335935 8.363281 2.027344 2.285157 5.78125 3.5625 8.855469 3.5625 12.03125-1.492187 118.078125-16.148437 134.742188-64.722656 6.460937-18.882812-.898438-39.085937-21.867188-60.074218zm0 0" fill="#ffc107"/><path d="m405.335938 170.667969c0 35.34375-28.65625 64-64 64-35.347657 0-64-28.65625-64-64 0-35.347657 28.652343-64 64-64 35.34375 0 64 28.652343 64 64zm0 0" fill="#f44336"/><path d="m192 426.667969c-2.75 0-5.480469-1.066407-7.550781-3.117188l-96-96c-3.5-3.496093-4.117188-8.957031-1.515625-13.160156 7.980468-12.84375 197.953125-314.390625 414.402344-314.390625 5.886718 0 10.664062 4.78125 10.664062 10.667969 0 216.449219-301.546875 406.421875-314.367188 414.398437-1.726562 1.089844-3.691406 1.601563-5.632812 1.601563zm-82.34375-108.097657 83.796875 83.796876c44.882813-29.609376 287.464844-197.992188 296.9375-380.734376-182.847656 9.472657-351.167969 252.054688-380.734375 296.9375zm0 0"/><path d="m10.667969 362.667969c-2.238281 0-4.5-.703125-6.355469-2.113281-2.925781-2.152344-4.523438-5.632813-4.2890625-9.238282.1054685-1.597656 12.3710935-159.316406 181.3125005-159.316406 5.886718 0 10.664062 4.78125 10.664062 10.667969s-4.777344 10.667969-10.664062 10.667969c-118.976563 0-149.738282 85.011718-157.484376 122.324218l68.394532-25.644531c5.460937-2.132813 11.648437.726563 13.738281 6.230469 2.089844 5.523437-.703125 11.667968-6.226563 13.738281l-85.335937 32c-1.238281.449219-2.472656.683594-3.753906.683594zm0 0"/><path d="m160 512c-3.347656 0-6.546875-1.578125-8.554688-4.308594-2.175781-2.902344-2.6875-6.699218-1.40625-10.113281l32-85.332031c2.070313-5.503906 8.253907-8.363282 13.738282-6.230469 5.523437 2.070313 8.320312 8.214844 6.230468 13.738281l-25.621093 68.332032c37.332031-7.871094 122.28125-38.871094 122.28125-157.417969 0-5.886719 4.777343-10.667969 10.667969-10.667969 5.886718 0 10.664062 4.78125 10.664062 10.667969 0 168.9375-157.714844 181.203125-159.316406 181.3125-.234375.019531-.449219.019531-.683594.019531zm0 0"/><path d="m12.351562 511.914062c-3.070312 0-6.804687-1.277343-8.851562-3.5625-2.027344-2.28125-3.796875-5.3125-3.4140625-8.363281 1.4921875-12.007812 16.1484375-118.078125 64.7265625-134.71875 18.453125-6.3125 38.207031.554688 58.667969 20.480469.636719.40625 1.234375.851562 1.746093 1.367188 20.972657 20.96875 28.332032 41.191406 21.847657 60.050781-16.640625 48.597656-122.6875 63.253906-134.722657 64.746093zm65.792969-127.507812c-2.21875 0-4.351562.363281-6.421875 1.046875-24.296875 8.339844-41.386718 62.972656-48.402344 103.316406 39.742188-6.847656 95.210938-24.023437 103.570313-48.46875 3.480469-10.199219-1.683594-22.53125-15.378906-36.652343-.621094-.425782-1.21875-.875-1.75-1.40625-11.820313-11.882813-22.421875-17.835938-31.617188-17.835938zm0 0"/><path d="m341.335938 234.667969c-35.285157 0-64-28.714844-64-64 0-35.285157 28.714843-64 64-64 35.285156 0 64 28.714843 64 64 0 35.285156-28.714844 64-64 64zm0-106.667969c-23.53125 0-42.667969 19.136719-42.667969 42.667969s19.136719 42.667969 42.667969 42.667969 42.664062-19.136719 42.664062-42.667969-19.132812-42.667969-42.664062-42.667969zm0 0"/></svg>